<?xml version="1.0" encoding="UTF-8" standalone="no"?>
<svg width="240px" height="240px" viewBox="0 0 240 240" version="1.1" xmlns="http://www.w3.org/2000/svg" xmlns:xlink="http://www.w3.org/1999/xlink" xmlns:sketch="http://www.bohemiancoding.com/sketch/ns">
    <!-- Generator: Sketch 3.5.2 (25235) - http://www.bohemiancoding.com/sketch -->
    <title>1455439813_Batman</title>
    <desc>Created with Sketch.</desc>
    <defs>
        <linearGradient x1="18.8827894%" y1="-2.24885093%" x2="83.2359553%" y2="79.8351618%" id="linearGradient-1">
            <stop stop-color="#212121" stop-opacity="0.2" offset="0%"></stop>
            <stop stop-color="#212121" stop-opacity="0" offset="100%"></stop>
        </linearGradient>
    </defs>
    <g id="Page-1" stroke="none" stroke-width="1" fill="none" fill-rule="evenodd" sketch:type="MSPage">
        <g id="1455439813_Batman" sketch:type="MSLayerGroup">
            <g id="Group" sketch:type="MSShapeGroup">
                <path d="M120,239.322 C54.1,239.322 0.678,185.9 0.678,120 C0.678,186.274 54.1,240 120,240 C185.9,240 239.322,186.274 239.322,120 C239.322,185.9 185.9,239.322 120,239.322 L120,239.322 Z" id="Shape" opacity="0.2" fill="#827717"></path>
                <path d="M120,0.678 C185.9,0.678 239.322,54.1 239.322,120 C239.322,53.726 185.9,0 120,0 C54.1,0 0.678,53.726 0.678,120 C0.678,54.1 54.1,0.678 120,0.678 L120,0.678 Z" id="Shape" opacity="0.2" fill="#FFFFFF"></path>
                <circle id="Oval" fill="#178BA7" cx="120" cy="120" r="119.322"></circle>
            </g>
            <path d="M237.808,139.01 C237.76,138.963 202.439,103.63 202.074,103.276 C201.722,102.909 201.361,102.552 200.995,102.197 C200.643,101.83 200.282,101.473 199.916,101.118 C187.1,87.76 165.064,82.373 156.839,80.017 C160.252,84.394 162.082,89.782 161.99,94.705 C161.997,98.923 160.568,102.819 157.495,105.454 C157.475,104.956 129.433,76.841 129.392,75.931 C126.201,81.532 125.35,83.199 124.145,85.539 C122.74,85.188 121.253,85.105 119.95,85.136 C119.95,85.136 119.95,85.147 119.652,85.147 C119.589,85.149 119.525,85.151 119.464,85.154 L111.039,75.986 C110.805,83.813 110.626,95.593 106.091,102.712 C105.472,102.855 83.427,80.502 83.827,79.97 C39.782,90.018 32.181,111.628 30.81,119.998 C30.603,121.278 30.534,122.258 30.506,122.841 C31.274,132.81 36.027,140.291 41.801,145.851 C42.157,146.218 134.091,238.149 134.404,238.454 C187.242,232.096 229.45,191.208 237.808,139.01 L237.808,139.01 Z" id="Shape" fill="url(#linearGradient-1)" sketch:type="MSShapeGroup"></path>
            <path d="M209.496,123.131 L209.496,122.87 C209.459,121.89 209.379,120.932 209.264,119.995 C205.795,92.264 168.181,83.266 156.84,80.018 C160.253,84.395 162.083,89.783 161.991,94.706 C162.004,102.301 157.38,108.868 146.835,108.868 C129.286,108.868 130.03,90.043 129.392,75.932 C126.201,81.533 125.35,83.2 124.145,85.54 C120.458,84.618 116.204,85.54 116.204,85.54 L111.04,75.986 C110.674,88.234 110.461,110.18 93.444,108.761 C83.195,107.907 78.432,102.023 78.419,94.808 C78.302,90.117 80.173,84.838 83.828,79.97 C39.783,90.018 32.182,111.628 30.811,119.998 C30.604,121.278 30.535,122.258 30.507,122.841 C32.365,146.959 57.533,156.549 64.104,159.486 C61.206,153.973 59.94,149.572 59.903,146.224 C59.408,133.954 75.188,135.317 87.062,147.192 C105.923,119.113 120.16,164.068 120.16,164.068 C120.16,164.068 134.604,118.44 153.146,147.192 C173.8,130.503 180.423,137.316 180.386,146.365 C180.387,146.448 180.386,146.533 180.386,146.617 C180.405,151.076 178.838,156.097 176.531,159.2 C208.909,143.987 209.493,126.65 209.496,123.131 L209.496,123.131 Z" id="Shape" fill="#FAFAFA" sketch:type="MSShapeGroup"></path>
        </g>
    </g>
</svg>