<?xml version="1.0" encoding="UTF-8" standalone="no"?>
<svg width="144px" height="144px" viewBox="0 0 144 144" version="1.1" xmlns="http://www.w3.org/2000/svg" xmlns:xlink="http://www.w3.org/1999/xlink" xmlns:sketch="http://www.bohemiancoding.com/sketch/ns">
    <!-- Generator: Sketch 3.5.2 (25235) - http://www.bohemiancoding.com/sketch -->
    <title>GitHub-Mark</title>
    <desc>Created with Sketch.</desc>
    <defs></defs>
    <g id="Page-1" stroke="none" stroke-width="1" fill="none" fill-rule="evenodd" sketch:type="MSPage">
        <g id="GitHub-Mark" sketch:type="MSLayerGroup">
            <circle id="Oval-1" fill="#FAFAFA" sketch:type="MSShapeGroup" cx="72" cy="72" r="72"></circle>
            <path d="M72.0004968,10 C38.8674809,10 12,37.5423689 12,71.5190329 C12,98.6997528 29.1919685,121.759712 53.0320017,129.894267 C56.0306355,130.463736 57.1315256,128.559731 57.1315256,126.934858 C57.1315256,125.467887 57.0758849,120.621791 57.0500517,115.481283 C40.3578555,119.202701 36.8356034,108.222836 36.8356034,108.222836 C34.1062306,101.112104 30.1736286,99.2213423 30.1736286,99.2213423 C24.7297868,95.4031444 30.5839785,95.4815866 30.5839785,95.4815866 C36.6090664,95.9155653 39.7815773,101.82114 39.7815773,101.82114 C45.1330159,111.22605 53.8179259,108.507061 57.2418133,106.935162 C57.7803353,102.959061 59.3352929,100.245165 61.0512109,98.7089214 C47.7242807,97.1533216 33.7147588,91.8783406 33.7147588,68.3059603 C33.7147588,61.5894771 36.0586214,56.1015817 39.896833,51.7933749 C39.2738563,50.2438874 37.2201201,43.9868513 40.4780791,35.5130599 C40.4780791,35.5130599 45.516539,33.859662 56.9824881,41.8189951 C61.7685779,40.4559351 66.9014283,39.7723676 72.0004968,39.7489368 C77.0995653,39.7723676 82.23639,40.4559351 87.0314221,41.8189951 C98.483461,33.859662 103.514966,35.5130599 103.514966,35.5130599 C106.780874,43.9868513 104.726144,50.2438874 104.103167,51.7933749 C107.950321,56.1015817 110.278286,61.5894771 110.278286,68.3059603 C110.278286,91.9343707 96.2419375,97.1370219 82.8812254,98.6600224 C85.0333264,100.569121 86.9509418,104.312952 86.9509418,110.052474 C86.9509418,118.283807 86.881391,124.908605 86.881391,126.934858 C86.881391,128.571956 87.9614159,130.490223 91.0027738,129.886117 C114.82989,121.742394 132,98.6905843 132,71.5190329 C132,37.5423689 105.136493,10 72.0004968,10" id="Fill-4" fill="#215159" sketch:type="MSShapeGroup"></path>
        </g>
    </g>
</svg>