<?xml version="1.0" encoding="UTF-8" standalone="no"?>
<svg width="264px" height="264px" viewBox="0 0 264 264" version="1.1" xmlns="http://www.w3.org/2000/svg" xmlns:xlink="http://www.w3.org/1999/xlink" xmlns:sketch="http://www.bohemiancoding.com/sketch/ns">
    <!-- Generator: Sketch 3.5.2 (25235) - http://www.bohemiancoding.com/sketch -->
    <title>InVision-icon-pink</title>
    <desc>Created with Sketch.</desc>
    <defs>
        <path id="path-1" d="M0,0 L264,0 L264,263.94 L0,263.94"></path>
    </defs>
    <g id="Page-1" stroke="none" stroke-width="1" fill="none" fill-rule="evenodd" sketch:type="MSPage">
        <g id="InVision-icon-pink" sketch:type="MSLayerGroup">
            <g id="Group-3">
                <mask id="mask-2" sketch:name="Clip 2" fill="white">
                    <use xlink:href="#path-1"></use>
                </mask>
                <g id="Clip-2"></g>
                <path d="M240.068,0 L23.932,0 C10.715,0 0,10.715 0,23.932 L0,240.068 C0,253.285 10.715,264 23.932,264 L240.068,264 C253.285,264 264,253.285 264,240.068 L264,23.932 C264,10.715 253.285,0 240.068,0" id="Fill-1" fill="#DC385F" sketch:type="MSShapeGroup" mask="url(#mask-2)"></path>
            </g>
            <path d="M88.229,83.062 C97.005,83.062 104.356,76.183 104.356,67.168 C104.356,58.159 97.005,51.282 88.229,51.282 C79.453,51.282 72.103,58.159 72.103,67.168 C72.103,76.183 79.453,83.062 88.229,83.062" id="Fill-4" fill="#FFFFFF" sketch:type="MSShapeGroup"></path>
            <path d="M54.789,168.161 C53.842,172.193 53.366,176.547 53.366,180.099 C53.366,194.094 60.955,203.385 77.083,203.385 C90.459,203.385 101.302,195.441 109.109,182.616 L104.342,201.749 L130.902,201.749 L146.082,140.865 C149.876,125.449 157.228,117.448 168.376,117.448 C177.151,117.448 182.606,122.905 182.606,131.914 C182.606,134.525 182.368,137.368 181.42,140.452 L173.592,168.437 C172.406,172.469 171.934,176.504 171.934,180.295 C171.934,193.581 179.758,203.299 196.123,203.299 C210.116,203.299 221.262,194.291 227.429,172.708 L216.995,168.679 C211.776,183.139 207.27,185.753 203.713,185.753 C200.155,185.753 198.257,183.383 198.257,178.642 C198.257,176.508 198.733,174.139 199.443,171.287 L207.034,144.022 C208.93,137.62 209.643,131.943 209.643,126.727 C209.643,106.331 197.309,95.687 182.368,95.687 C168.376,95.687 154.145,108.308 147.032,121.591 L152.248,97.749 L111.694,97.749 L106.001,118.749 L124.975,118.749 L113.292,165.527 C104.116,185.923 87.262,186.254 85.147,185.78 C81.674,184.997 79.453,183.678 79.453,179.165 C79.453,176.561 79.927,172.821 81.113,168.311 L98.902,97.749 L53.842,97.749 L48.149,118.749 L66.884,118.749 L54.789,168.161" id="Fill-5" fill="#FFFFFF" sketch:type="MSShapeGroup"></path>
        </g>
    </g>
</svg>